# xmcd
#
# Track frame offsets:
#	150
#	14744
#	29496
#	50603
#	70298
#	91955
#
# Disc length: 1530 seconds
#
# Revision: 0
# Processed by: cddbd v1.5.2PL0 Copyright (c) Steve Scherf et al.
# Submitted via: audiograbber 1.83.01
#
DISCID=5005f806
DTITLE=Blues District - blues tracks
DYEAR=2002
DGENRE=Blues
TTITLE0=Fever
TTITLE1=Looking Back
TTITLE2=Bessie Mae
TTITLE3=Mojo Man
TTITLE4=Talking Woman Blues
TTITLE5=Love Her With A Feeling
EXTD=
EXTT0=
EXTT1=
EXTT2=
EXTT3=
EXTT4=
EXTT5=
PLAYORDER=
